<?xml version="1.0" encoding="UTF-8"?>
<svg width="113px" height="100px" viewBox="0 0 113 100" version="1.1" xmlns="http://www.w3.org/2000/svg" xmlns:xlink="http://www.w3.org/1999/xlink">
    <!-- Generator: Sketch 52.2 (67145) - http://www.bohemiancoding.com/sketch -->
    <title>Group 2</title>
    <desc>Created with Sketch.</desc>
    <g id="Page-1" stroke="none" stroke-width="1" fill="none" fill-rule="evenodd">
        <g id="Home-page-Redesign" transform="translate(-122.000000, -2187.000000)" fill="#581E3B">
            <g id="Group-2" transform="translate(121.000000, 2185.000000)">
                <g id="noun_Jar_1924668" transform="translate(28.520581, 30.843514) rotate(36.000000) translate(-28.520581, -30.843514) translate(12.520581, 4.343514)" fill-rule="nonzero">
                    <path d="M27.8815575,4.86806046 L3.52441952,4.86806046 L3.52441952,0.534727124 L27.8815575,0.534727124 L27.8815575,4.86806046 Z M31.2029855,22.2013938 L31.2029855,15.7013938 C31.205183,13.8701661 30.0307254,12.2352656 28.2690575,11.6172271 C27.3951102,11.348005 26.7938431,10.5635561 26.7744149,9.66722712 L26.7744149,7.03472712 L4.63156216,7.03472712 L4.63156216,9.66722712 C4.61213394,10.5635561 4.01086691,11.348005 3.1369196,11.6172271 C1.37525164,12.2352656 0.20079408,13.8701661 0.202991612,15.7013938 L0.202991612,50.3680605 C0.202991612,51.5646774 1.1943609,52.5347271 2.41727689,52.5347271 L28.9887002,52.5347271 C30.2116162,52.5347271 31.2029855,51.5646774 31.2029855,50.3680605 L31.2029855,43.8680605 L4.63156216,43.8680605 L4.63156216,22.2013938 L31.2029855,22.2013938 Z" id="Shape"></path>
                </g>
                <g id="noun_dish_1697902" transform="translate(22.000000, 38.000000)">
                    <g id="Group">
                        <path d="M84.18213,56.9786184 L7.81787001,56.9786184 C6.76357339,56.9786184 5.90876351,56.2245066 5.90876351,55.2944079 C5.90876351,37.6036184 23.8933298,23.2105263 46,23.2105263 C68.1066702,23.2105263 86.0912365,37.6036184 86.0912365,55.2944079 C86.0912365,56.2245066 85.2364266,56.9786184 84.18213,56.9786184 Z M9.78850052,53.6101974 L82.2114997,53.6101974 C81.105933,38.5575658 65.2868231,26.5789474 46,26.5789474 C26.7131769,26.5789474 10.894067,38.5575658 9.78850052,53.6101974 Z" id="Shape" fill-rule="nonzero"></path>
                        <path d="M89.9094495,63.7154605 L2.09055051,63.7154605 C1.03625389,63.7154605 0.181444006,62.9613487 0.181444006,62.03125 L0.181444006,55.2944079 C0.181444006,54.3643092 1.03625389,53.6101974 2.09055051,53.6101974 L89.9094495,53.6101974 C90.9637461,53.6101974 91.818556,54.3643092 91.818556,55.2944079 L91.818556,62.03125 C91.818556,62.9613487 90.9637461,63.7154605 89.9094495,63.7154605 Z M3.99965701,60.3470395 L88.000343,60.3470395 L88.000343,56.9786184 L3.99965701,56.9786184 L3.99965701,60.3470395 Z" id="Shape" fill-rule="nonzero"></path>
                        <path d="M25.723201,18.5139803 C24.6689044,18.5139803 23.8140945,17.7598685 23.8140945,16.8297698 L23.8140945,10.3898026 C23.8140945,9.45970392 24.6689044,8.70559208 25.723201,8.70559208 C26.7774976,8.70559208 27.6323075,9.45970392 27.6323075,10.3898026 L27.6323075,16.8297698 C27.6323075,17.7598685 26.7774974,18.5139803 25.723201,18.5139803 Z" id="Path"></path>
                        <path d="M46,10.0929277 C44.9457034,10.0929277 44.0908935,9.33881583 44.0908935,8.40871714 L44.0908935,1.96874998 C44.0908935,1.03865128 44.9457034,0.284539453 46,0.284539453 C47.0542966,0.284539453 47.9091065,1.03865128 47.9091065,1.96874998 L47.9091065,8.40871714 C47.9091065,9.33881583 47.0542966,10.0929277 46,10.0929277 Z" id="Path"></path>
                        <path d="M66.2767992,18.5139803 C65.2225026,18.5139803 64.3676927,17.7598685 64.3676927,16.8297698 L64.3676927,10.3898026 C64.3676927,9.45970392 65.2225026,8.70559208 66.2767992,8.70559208 C67.3310958,8.70559208 68.1859057,9.45970392 68.1859057,10.3898026 L68.1859057,16.8297698 C68.1859057,17.7598685 67.3310956,18.5139803 66.2767992,18.5139803 Z" id="Path"></path>
                        <path d="M46,26.5789474 C44.9457034,26.5789474 44.0908935,25.8248355 44.0908935,24.8947368 L44.0908935,19.9662829 C44.0908935,19.0361843 44.9457034,18.2820724 46,18.2820724 C47.0542966,18.2820724 47.9091065,19.0361843 47.9091065,19.9662829 L47.9091065,24.8947368 C47.9091065,25.8248355 47.0542966,26.5789474 46,26.5789474 Z" id="Path"></path>
                    </g>
                </g>
            </g>
        </g>
    </g>
</svg>