<?xml version="1.0" encoding="UTF-8"?>
<svg width="81px" height="88px" viewBox="0 0 81 88" version="1.1" xmlns="http://www.w3.org/2000/svg" xmlns:xlink="http://www.w3.org/1999/xlink">
    <!-- Generator: Sketch 52.2 (67145) - http://www.bohemiancoding.com/sketch -->
    <title>Group 3</title>
    <desc>Created with Sketch.</desc>
    <g id="Page-1" stroke="none" stroke-width="1" fill="none" fill-rule="evenodd">
        <g id="Home-page-Redesign" transform="translate(-1177.000000, -2199.000000)" fill="#581E3B">
            <g id="Group-3" transform="translate(1177.000000, 2200.000000)">
                <g id="noun_chopsticks_69094" transform="translate(0.000000, 4.000000)">
                    <path d="M39.5017621,82 C18.0786903,82 0,57.8916218 0,42.75079 C0,41.7843539 0.789400901,41 1.76205558,41 L77.2379444,41 C78.2105991,41 79,41.7843539 79,42.75079 C79,57.8916218 60.9248338,82 39.5017621,82 Z M3.60868983,44.50158 C4.8914663,58.3188146 20.79578,78.49842 39.5017621,78.49842 C58.2112682,78.49842 74.1085337,58.3188146 75.3983584,44.50158 L3.60868983,44.50158 Z" id="Shape" fill-rule="nonzero"></path>
                    <path d="M51.25,83 L26.75,83 C25.784,83 25,82.1 25,81 C25,79.9 25.784,79 26.75,79 L51.25,79 C52.2125,79 53,79.9 53,81 C53,82.1 52.2125,83 51.25,83 Z" id="Path"></path>
                    <path d="M41.767111,39 C41.300362,39 40.837149,38.8178125 40.4906233,38.4604447 C39.8152516,37.7597235 39.8400035,36.6525839 40.5471989,35.9833952 L78.0108754,0.484858551 C78.7145348,-0.184330207 79.8389755,-0.156301359 80.5108111,0.540916248 C81.1791108,1.24163746 81.1649669,2.34877698 80.4542355,3.01796573 L42.990559,38.5129988 C42.6440333,38.8388341 42.2091081,39 41.767111,39 Z" id="Path"></path>
                    <path d="M29.7512037,27 C29.3235653,27 28.8959269,26.8436061 28.5594245,26.5237095 C27.8513675,25.8554811 27.8093047,24.7322886 28.4682885,24.0107441 L49.9623759,0.565878716 C50.6248649,-0.152111401 51.7325184,-0.191209873 52.4405755,0.473464146 C53.1486325,1.14169257 53.1906953,2.26488503 52.5317115,2.98642956 L31.0376241,26.431295 C30.6906061,26.808062 30.2209049,27 29.7512037,27 Z" id="Path"></path>
                </g>
                <g id="noun_Heart_573811-Copy" transform="translate(14.000000, 0.000000)" fill-rule="nonzero" stroke="#60183C">
                    <g id="Group">
                        <path d="M19.7748889,8.82028604 L11.5,16.9973657 L3.22511111,8.82028604 C1.65344444,7.26719648 1.65344444,4.74007985 3.22511111,3.18699029 C3.98641111,2.43443632 4.99866667,2.02027911 6.07557778,2.02027911 C7.15223333,2.02027911 8.16448889,2.43443632 8.92578889,3.18699029 L11.5,5.73052169 L14.0742111,3.18699029 C14.8355111,2.43443632 15.8477667,2.02027911 16.9244222,2.02027911 C18.0013333,2.02027911 19.0135889,2.43443632 19.7748889,3.18699029 C21.3465556,4.74007985 21.3465556,7.26719648 19.7748889,8.82028604 M21.2205667,1.75840043 C20.0342778,0.586133476 18.4794778,0 16.9244222,0 C15.3696222,0 13.8148222,0.586133476 12.6285333,1.75840043 L11.5,2.87359449 L10.3714667,1.75840043 C9.18517778,0.586133476 7.63037778,0 6.07557778,0 C4.52052222,0 2.96572222,0.586133476 1.77943333,1.75840043 C-0.593144444,4.10293433 -0.593144444,7.904342 1.77943333,10.2488759 L11.5,19.8545455 L21.2205667,10.2488759 C23.5931444,7.904342 23.5931444,4.10293433 21.2205667,1.75840043" id="Shape"></path>
                    </g>
                </g>
            </g>
        </g>
    </g>
</svg>