<?xml version="1.0" encoding="UTF-8"?>
<svg width="100px" height="102px" viewBox="0 0 100 102" version="1.1" xmlns="http://www.w3.org/2000/svg" xmlns:xlink="http://www.w3.org/1999/xlink">
    <!-- Generator: Sketch 52.2 (67145) - http://www.bohemiancoding.com/sketch -->
    <title>noun_Cook_1109746</title>
    <desc>Created with Sketch.</desc>
    <g id="Page-1" stroke="none" stroke-width="1" fill="none" fill-rule="evenodd">
        <g id="Home-page-Redesign" transform="translate(-656.000000, -2185.000000)" fill="#581E3B" fill-rule="nonzero">
            <g id="noun_Cook_1109746" transform="translate(656.000000, 2185.000000)">
                <path d="M70.1522507,33.7313161 C69.9013157,32.7916411 69.2147899,32.0847296 68.2692178,31.79162 C68.2438538,31.7835379 68.2171369,31.7835379 68.1917729,31.7765334 C68.6733519,29.8670103 69.7048288,24.6239039 68.0307957,19.8226171 C68.0619089,19.7951381 68.0994477,19.7741247 68.1285319,19.7450293 C68.5904959,19.285429 68.7636478,18.6922052 68.6026707,18.1178397 L67.7457038,15.0466541 C67.5647736,14.3995499 66.995266,13.9027722 66.2613992,13.6748579 L65.0713176,8.16935362 C66.593161,7.27817099 67.4521571,6.04538632 67.4521571,4.71777206 C67.4521571,2.11642397 64.1311566,0 60.0485579,0 C58.1668831,0 56.385988,0.454751015 55.0244455,1.26511296 C53.6629029,0.454751015 51.882008,0 49.9996568,0 C48.117982,0 46.3370869,0.454751015 44.9755444,1.26511296 C43.6133255,0.454751015 41.8324305,0 39.9507557,0 C35.8681571,0 32.5471565,2.11642408 32.5471565,4.71777206 C32.5471565,6.04538632 33.4061526,7.27817099 34.927996,8.16935362 L33.7379144,13.6753967 C33.0043859,13.903311 32.4352164,14.4000887 32.2542862,15.0471929 L31.3966429,18.117301 C31.2356657,18.6922054 31.4088177,19.2854291 31.871458,19.7450294 C31.8795745,19.7531114 31.8907346,19.7590383 31.8991893,19.7665816 C30.2789334,24.6745517 31.4193014,30.0512816 31.8667233,31.7657575 C31.8224208,31.7770724 31.7747363,31.7776112 31.730772,31.7910813 C29.8802104,32.3654468 29.2038355,34.3972786 30.1913429,36.4177954 C31.0056982,38.0827013 32.6601111,39.1452237 34.2522975,39.1452237 C34.4075254,39.1452237 34.5620771,39.1322924 34.7156143,39.1112791 C36.0737751,42.4276207 38.262524,45.130264 41.7458545,46.8086399 L41.7458545,50.5856594 L41.7458545,50.5894311 L40.0495063,50.5894311 L40.3968248,52.3125278 L41.2030637,56.3131512 L42.1253008,60.8902952 L57.8746892,60.8902952 L59.8307653,51.1810384 L59.9498073,50.5894311 L58.2534591,50.5894311 L58.2534591,46.8328862 C61.7442297,45.1566654 63.935346,42.4427073 65.2931686,39.1107403 C65.4406183,39.1295984 65.5894208,39.1430686 65.7402524,39.1430686 C66.4200092,39.1430686 67.1274971,38.951793 67.7808753,38.5816342 C68.6459587,38.0907834 69.3656216,37.3224481 69.8079759,36.4177954 C70.250325,35.5126039 70.3727489,34.5589198 70.1522507,33.7313161 Z M34.62498,4.71777217 C34.62498,3.02915895 37.0139361,1.6552075 39.9507557,1.6552075 C41.6471038,1.6552075 43.2115588,2.12450624 44.2423541,2.94187258 C44.648179,3.26353885 45.3029098,3.26353885 45.7087348,2.94187258 C46.7388536,2.12396741 48.3033088,1.6552075 49.9996569,1.6552075 C51.6966815,1.6552075 53.2611365,2.12396741 54.2912553,2.94187258 C54.6970803,3.26353885 55.3518111,3.26353885 55.7576361,2.94187258 C56.7877549,2.12396741 58.35221,1.6552075 60.0485582,1.6552075 C62.9853778,1.6552075 65.3743338,3.02915895 65.3743338,4.71777217 C65.3743338,5.61542049 64.6553473,6.47211964 63.400672,7.06749851 C63.0320477,7.24260996 62.835899,7.58097915 62.9089474,7.91880962 L64.1227021,13.5358464 L35.8769498,13.5358464 L37.0910426,7.91880962 C37.1640911,7.58151797 36.9679423,7.24260996 36.599318,7.06749851 C35.3446428,6.47211953 34.62498,5.61542049 34.62498,4.71777217 Z M32.1271277,35.8164896 C31.5508563,34.6375853 31.8403447,33.5330362 32.4842536,33.3336785 C32.5640658,33.3088935 32.6472599,33.2981174 32.7304541,33.2981174 C32.8883876,33.2981174 33.0463211,33.3374501 33.1863308,33.3859424 C33.4108872,34.8100027 33.717285,36.1785661 34.1254772,37.4733133 C33.4771719,37.40273 32.6053246,36.7933421 32.1271277,35.8164896 Z M56.1756354,50.4256344 C56.1665044,50.4364105 56.1475658,50.448803 56.1347148,50.4606567 C56.0910886,50.5005283 56.0298767,50.5425551 55.9443152,50.589431 C55.6030841,50.7774738 54.9284002,51.0064657 53.9263508,51.192892 C52.9330944,51.377702 51.6364838,51.51833 49.9996566,51.51833 C48.3479493,51.51833 47.0432222,51.3755468 46.0482747,51.192892 C44.9900863,50.9989223 44.2890238,50.7607708 43.9819496,50.589431 C43.9017992,50.545249 43.8520856,50.5069939 43.8236779,50.4741268 L43.8236779,50.4606567 L43.8236779,47.6346272 C45.6086311,48.2100704 47.6705598,48.5651425 50.0524138,48.6610497 C52.3906417,48.566759 54.4163843,48.2170748 56.1756354,47.6534854 L56.1756354,50.4256344 Z M64.8728015,32.4414182 C64.5971788,34.5896317 64.1636225,36.5282503 63.5278301,38.2411097 C62.4479976,41.150654 60.7682207,43.4023179 58.2358732,44.8964228 C57.9105369,45.0882371 57.5686294,45.2660426 57.2145472,45.4325332 C56.8743306,45.5925581 56.5432452,45.7601263 56.1756354,45.8964439 C54.4576433,46.5338496 52.4332533,46.9110128 50.0524138,47.0079975 C48.6854603,46.9525006 47.4578399,46.7881652 46.3151047,46.554863 C45.4493449,46.3786739 44.623153,46.1696178 43.8764352,45.8948275 C43.3397317,45.6970863 42.8378616,45.4697108 42.3589882,45.2218607 C39.4864242,43.7379931 37.64195,41.3597101 36.4779088,38.2378769 C35.8404255,36.5282503 35.4058547,34.594481 35.1295555,32.4516556 C34.9976625,31.4295435 34.890457,30.3740255 34.8228196,29.2603166 C35.027423,27.988738 35.3689923,26.9585439 35.7863155,26.1309402 C36.3781435,26.0468866 37.5300099,25.8367529 38.8820832,25.3507512 C39.1411348,25.588364 39.5273448,25.7289919 39.9419626,25.7106726 C40.1435223,25.7031294 42.766504,25.5835148 45.5951036,24.7311261 C45.5998383,24.789317 45.6106603,24.8485855 45.628246,24.9067764 C45.7669029,25.3701483 46.2809477,25.7009742 46.8788631,25.7117503 C47.116947,25.715522 51.9259722,25.7667084 55.002125,23.1098634 C56.2168942,25.3588333 58.8459632,28.8950072 64.0696062,31.1423607 L64.9215003,32.0782641 C64.9069584,32.2011115 64.8883582,32.3196485 64.8728015,32.4414182 Z M65.1971233,18.8128976 L33.7626021,18.8128976 C33.7362234,18.8128976 33.7213432,18.803199 33.6983465,18.7994275 C33.6804225,18.7961946 33.6631751,18.7935006 33.6472803,18.7881126 C33.5752463,18.7665604 33.5184308,18.7353097 33.4920523,18.7094471 C33.453499,18.6706531 33.3933015,18.5898325 33.4244148,18.4766836 L33.8031848,17.1215903 L34.2347119,15.5762991 L34.2820581,15.4071145 C34.3043785,15.328449 34.372016,15.2740297 34.4545337,15.2368522 C34.4873378,15.2217657 34.5231857,15.212606 34.5617391,15.207218 C34.5827067,15.2039851 34.5982634,15.1910539 34.6202455,15.1910539 L35.5191477,15.1910539 L64.4801661,15.1910539 L65.221473,15.1910539 L65.3797447,15.1910539 C65.4412949,15.1910539 65.4937139,15.2142225 65.5447802,15.2373911 C65.6272979,15.2751074 65.6962881,15.3295266 65.7179321,15.4065757 L65.8579417,15.9076639 L66.1964674,17.1215904 L66.5748991,18.4777613 C66.6060123,18.5898327 66.545815,18.6711922 66.5072617,18.7094472 C66.4754721,18.7412367 66.4020854,18.7821858 66.3013056,18.7988888 C66.2786471,18.8031993 66.2634285,18.8128977 66.2367117,18.8128977 L66.2211551,18.8128977 L65.1971233,18.8128977 Z M67.8721858,35.8164896 C67.5793154,36.4156402 67.1065294,36.9318149 66.5755751,37.2330066 C66.4436821,37.3073616 66.1690739,37.4377523 65.8802618,37.4733133 C66.2864249,36.1791049 66.5914699,34.8110803 66.8150119,33.3880977 C67.0740634,33.2997338 67.3189111,33.2727936 67.5150599,33.3336785 C67.9154738,33.4576035 68.07104,33.8934963 68.1197389,34.0750735 C68.255014,34.5831661 68.1650561,35.2178778 67.8721858,35.8164896 Z M47.787911,37.7669618 L47.787911,35.7022629 C47.787911,35.2448179 48.2532569,34.8746593 48.8268228,34.8746593 C49.4003887,34.8746593 49.8657345,35.2448179 49.8657345,35.7022629 L49.8657345,37.5094132 L51.1731671,37.5094132 C51.7467329,37.5094132 52.2120788,37.8801107 52.2120788,38.3370169 C52.2120788,38.7939231 51.7467329,39.1646206 51.1731671,39.1646206 L49.5417509,39.1646206 C48.574535,39.1646207 47.787911,38.5374522 47.787911,37.7669618 Z M43.482785,33.0303315 C43.482785,33.8223741 42.6765461,34.4646291 41.681937,34.4646291 C40.6873279,34.4646291 39.881089,33.8223741 39.881089,33.0303315 C39.881089,32.2377501 40.6873279,31.5954951 41.681937,31.5954951 C42.6765461,31.5954951 43.482785,32.2377501 43.482785,33.0303315 Z M60.1185627,33.0303315 C60.1185627,33.8223741 59.3123238,34.4646291 58.3177147,34.4646291 C57.3231056,34.4646291 56.5168667,33.8223741 56.5168667,33.0303315 C56.5168667,32.2377501 57.3231056,31.5954951 58.3177147,31.5954951 C59.3123238,31.5954951 60.1185627,32.2377501 60.1185627,33.0303315 Z M54.6402646,42.3047732 C54.6402646,43.5623428 52.243192,44.0095506 49.9996566,44.0095506 C47.7561213,44.0095506 45.3590487,43.5623429 45.3590487,42.3047732 C45.3590487,41.847867 45.8243946,41.4771695 46.3979605,41.4771695 C46.8450443,41.4771695 47.2258434,41.7023898 47.3726167,42.0170516 C47.6993057,42.1549855 48.6442015,42.3543432 49.9996566,42.3543432 C51.3551118,42.3543432 52.3000075,42.1549855 52.6266966,42.0170516 C52.7734699,41.7023897 53.154269,41.4771695 53.6013528,41.4771695 C54.1749187,41.4771695 54.6402646,41.847867 54.6402646,42.3047732 Z M44.2413394,11.9792402 C44.0401178,11.8111332 43.9203995,11.5842965 43.9508364,11.3353689 L43.9971681,10.9533565 L44.4757033,7.01523445 C44.5311661,6.56048344 45.0465637,6.23181277 45.609984,6.27168429 C46.1808444,6.3158663 46.5995205,6.71996962 46.5440577,7.17472063 L46.1023848,10.8089569 L46.0191907,11.4948549 C46.0022814,11.6338665 45.9316002,11.7545587 45.840966,11.8633972 C45.653272,12.0896951 45.3428159,12.2427156 44.9863663,12.2427156 C44.9525475,12.2427156 44.9187288,12.2410992 44.88491,12.2384051 C44.6265349,12.2184695 44.4073895,12.1182518 44.2413394,11.9792402 Z M53.8908413,10.7604645 L53.4559323,7.17472063 C53.4011459,6.71996962 53.8191455,6.3158663 54.390006,6.27168429 C54.9547789,6.22965758 55.4688238,6.56048355 55.5242866,7.01523445 L56.00316,10.9635937 L56.0484771,11.3353689 C56.0795902,11.593995 55.9476972,11.8272974 55.7319337,11.996482 C55.5682509,12.1247174 55.3606039,12.219547 55.1144034,12.2384052 C55.0805846,12.2410992 55.0467659,12.2427157 55.0129471,12.2427157 C54.6348536,12.2427157 54.3030917,12.0751475 54.1214851,11.825681 C54.049113,11.7260022 53.995003,11.6166249 53.9801227,11.4948551 L53.8908413,10.7604645 Z M99.8860273,96.0812326 C99.8796017,96.0709954 99.8829836,96.0591417 99.8762198,96.0494432 L88.5942873,79.316331 C88.1979316,78.7301117 87.4329517,78.3658799 86.5976286,78.3658799 L76.7614473,78.3658799 L68.3267095,54.370222 C67.8677892,53.0652376 66.7933677,52.0318106 65.4264142,51.4062585 C65.3337509,51.363693 65.2339856,51.3340587 65.1389549,51.2952648 L62.8277821,62.7664124 L65.5924643,76.9175735 C65.4960808,76.9078749 65.4007121,76.8927885 65.3026377,76.8927885 L63.2968481,76.8927885 L47.1440021,76.8927885 L47.2488402,76.3652989 C47.3249323,76.3275826 47.405421,76.2974096 47.479484,76.2559216 C48.1413168,75.885763 48.6448779,75.3922181 48.9999747,74.832939 C49.1369407,74.6168783 49.2475279,74.3916581 49.3320748,74.1556618 C49.3797592,74.0231158 49.4406329,73.8948804 49.4707317,73.7569465 L49.8488251,72.0349272 L50.2269186,70.3118305 C50.2560027,70.1792846 50.252959,70.0472775 50.2647957,69.9147315 C50.2861015,69.6749635 50.2803523,69.4384284 50.2465335,69.2029709 C50.1552229,68.5704144 49.8897457,67.9594101 49.417298,67.4232996 C49.3192236,67.3117671 49.1984907,67.2190927 49.0879034,67.1177974 L49.7920096,63.5767743 C50.0077732,62.4932385 49.0797869,61.4754368 47.719597,61.304097 C46.3526435,61.1311407 45.0824115,61.8719969 44.8666479,62.954994 L44.347192,65.5681958 L41.956207,65.2352146 C41.3704663,65.1533163 40.7948713,65.1716357 40.2422731,65.253534 L36.7826157,64.7578338 L37.1718695,62.7647961 L36.6771013,60.3100028 L34.8464928,51.226298 L34.6378311,50.1907157 C34.63242,50.1637754 34.635802,50.1379128 34.6317438,50.1109727 C33.5637479,50.1896382 32.5052212,50.4687389 31.5704713,51.003233 L11.2542025,62.6360218 C9.22169601,63.7998395 8.25989103,65.8198176 8.81316571,67.7643629 C9.36576399,69.7094471 11.3258982,71.2024744 13.7892555,71.5553913 L33.1230898,74.3243075 L33.1230898,77.3680141 C33.0453068,77.4213557 32.9634654,77.4703869 32.894137,77.5318107 C32.6229106,77.770501 32.445024,78.0593002 32.3489788,78.36588 L13.4030454,78.36588 C12.5677225,78.36588 11.8020661,78.7301118 11.4057105,79.3174088 L0.123776641,96.0494433 C0.117351041,96.058603 0.120394775,96.0699179 0.114645576,96.0796164 C0.0463317249,96.1900713 0,96.3096859 0,96.4406153 L0,100.172375 C0,101.180478 1.02944257,102 2.29426349,102 L97.6840851,102 C98.9441715,102 99.9736139,101.18425 99.9783486,100.180996 L99.9999926,96.4449257 C100.000673,96.3129185 99.9543412,96.1922263 99.8860273,96.0812326 Z M37.6287607,72.1082046 L38.3842715,68.6636276 C38.6203264,67.590329 39.7951894,66.8322311 41.118855,66.8322311 C41.2764503,66.8322311 41.4367512,66.8430072 41.5984048,66.8656369 L44.0218558,67.2029286 L45.5995002,67.4227609 L45.9224692,67.4674816 C46.6529541,67.5693157 47.2907755,67.8915207 47.7168917,68.3748283 C47.7567978,68.4200879 47.7831765,68.4707356 47.8183479,68.5176115 L46.2501728,68.2993957 L43.8696715,67.9680309 L43.504429,67.9173833 C42.9443906,67.8397955 42.4012617,68.1393708 42.3025109,68.5898113 C42.2037601,69.0402518 42.5818538,69.4691402 43.1473031,69.5478057 L43.5446733,69.6027638 L46.783156,70.0537431 L48.1328621,70.2417858 L47.981016,70.9346884 L46.7564394,70.7638874 L43.4063548,70.2978215 L42.9944425,70.2407082 C42.4337277,70.164198 41.8912751,70.4626957 41.7925243,70.9131362 C41.6937736,71.3635767 42.0718672,71.7924651 42.6373165,71.8711306 L43.0813566,71.9325544 L46.2444236,72.3727577 L47.6232137,72.5651109 L47.4710293,73.2574746 L45.8074854,73.0257887 L42.9430379,72.6270734 L42.4851322,72.5634945 C41.9230647,72.4864455 41.3819648,72.7860208 41.283214,73.2364613 C41.1844633,73.686363 41.5625569,74.1152514 42.1280063,74.1939169 L42.6180399,74.2623451 L44.0306488,74.4590087 L46.4412488,74.7941451 C46.3878152,74.8291674 46.3418217,74.8695777 46.2850061,74.9013672 C45.6789743,75.2408141 44.9417256,75.3717435 44.2112409,75.2704483 C44.2105645,75.2704483 44.2105645,75.2704483 44.2105645,75.2704483 L42.5717082,75.042534 L42.4658555,75.0274475 L39.8858237,74.6686037 C38.378184,74.4584698 37.3656509,73.3097386 37.6287607,72.1082046 Z M34.8650931,74.573774 L36.4968474,74.8070763 C37.212452,75.5651742 38.2665822,76.1233757 39.5286976,76.299026 L42.1408573,76.6621803 L42.0948639,76.8927886 L34.6966758,76.8927886 C34.5986014,76.8927886 34.5035707,76.9078752 34.4071873,76.9175736 L34.8650931,74.573774 Z M34.4349186,78.6417478 C34.4748247,78.6072643 34.5614007,78.5479959 34.6966756,78.5479959 L63.8788685,78.5479959 L65.3026375,78.5479959 C65.4379126,78.5479959 65.5251648,78.6072643 65.5650709,78.6417478 C65.6043007,78.677309 65.6692327,78.7522028 65.6557052,78.8605025 C65.6415013,78.9731126 65.6107263,79.0814123 65.592126,79.1934836 C65.5464707,79.4715067 65.500139,79.7500686 65.429796,80.0210873 C65.424385,80.0421007 65.4155922,80.0620365 65.409843,80.0825111 C65.3777151,80.2026644 65.3330745,80.3185074 65.2965502,80.4370445 C65.1869774,80.7905002 65.0577899,81.1374903 64.9083111,81.4769371 C63.4730437,84.7313163 60.2453829,87.3132673 56.1123944,88.6123249 C55.7843526,88.7152366 55.449547,88.8073721 55.1106833,88.8941197 C53.5053076,89.3041499 51.7903591,89.5374522 49.9996566,89.5374522 C48.2082778,89.5374522 46.492653,89.3041499 44.886601,88.8935809 C44.5480753,88.8068333 44.2139462,88.7152366 43.8862425,88.6117861 C39.322065,87.1769497 35.8613931,84.1774252 34.702763,80.4370445 C34.6662387,80.3185074 34.6215979,80.2026645 34.5894702,80.0825111 C34.583721,80.0620365 34.5749282,80.0421007 34.5695171,80.0210873 C34.4991741,79.7495298 34.4528425,79.4715067 34.4071872,79.1934836 C34.3885869,79.0819511 34.3578118,78.9736513 34.343608,78.8605025 C34.3300805,78.7527415 34.3950125,78.677309 34.4349186,78.6417478 Z M54.2188846,90.8014874 L54.2188831,91.3639993 C54.2195595,91.5374944 54.0010903,91.7584042 53.8008834,91.786422 L53.7988544,91.786422 C51.2780053,92.1468823 48.7213084,92.147421 46.2031648,91.7869608 C45.9975469,91.7573265 45.7797541,91.5396496 45.7804305,91.3618441 L45.7949725,90.8041814 C47.1460313,91.0493375 48.5495091,91.1926595 49.9996568,91.1926595 C51.4552154,91.1926595 52.8634279,91.04826 54.2188846,90.8014874 Z M30.4842131,63.855875 L33.1230896,62.3450673 L33.1230896,64.233577 L30.4842131,63.855875 Z M13.2359807,80.1008303 C13.2691231,80.0517991 13.3333787,80.0210873 13.4030454,80.0210873 L32.4656533,80.0210873 C33.5502204,84.8288397 37.9050599,88.6845246 43.7026068,90.3278783 L43.7026068,91.3602277 C43.7005778,92.3392354 44.6353277,93.2422718 45.833864,93.4157669 C47.2156978,93.6129693 48.6076772,93.7121094 49.9996566,93.7121094 C51.3916361,93.7121094 52.7836155,93.6129693 54.1654493,93.4157669 C55.364662,93.2455046 56.3000883,92.3430071 56.2967065,91.362383 L56.2967065,90.3278784 C60.3938472,89.1667547 63.7726777,86.9026983 65.7865838,83.9759123 C66.6225831,82.7609082 67.2157639,81.4316774 67.5339982,80.0210873 L77.343468,80.0210873 L86.5976288,80.0210873 C86.6672954,80.0210873 86.7308746,80.0517991 86.764017,80.1008303 L97.2234778,95.6130115 L2.77651872,95.6130115 L13.2359807,80.1008303 Z M97.9005289,100.173992 C97.8998525,100.268282 97.803131,100.344793 97.684089,100.344793 L2.29426737,100.344793 C2.1752254,100.344793 2.07782742,100.267744 2.07782742,100.172375 L2.07782742,97.268219 L97.9174383,97.268219 L97.9005289,100.173992 Z M20.9050569,83.502303 C20.9158789,83.4468061 20.946654,83.3966974 20.946654,83.3390453 L20.946654,82.6687725 C20.946654,82.0588458 20.3264182,81.5653009 19.5614383,81.5653009 L14.0790819,81.5653009 C13.3141019,81.5653009 12.6938662,82.0588458 12.6938662,82.6687725 L12.6938662,83.3390453 C12.6938662,83.3972362 12.7246412,83.4468062 12.7354632,83.5028419 C12.0851288,83.8492931 11.6552925,84.439284 11.6552925,85.1079404 L11.6552925,91.7206879 C11.6552925,92.7853656 12.7429034,93.6517632 14.07942,93.6517632 L19.5614381,93.6517632 C20.8979549,93.6517632 21.9855656,92.7853655 21.9855656,91.7206879 L21.9855656,85.1079405 C21.9855657,84.439284 21.5557296,83.8492932 20.9050569,83.502303 Z M19.9077422,91.720688 C19.9077422,91.8726308 19.752176,91.9965559 19.5614383,91.9965559 L14.0794201,91.9965559 C13.8886825,91.9965559 13.7331162,91.8726308 13.7331162,91.720688 L13.7331162,85.1079405 C13.7331162,84.9554588 13.8886825,84.8320726 14.0794201,84.8320726 L19.5614383,84.8320726 C19.752176,84.8320726 19.9077422,84.9554588 19.9077422,85.1079405 L19.9077422,91.720688 Z M32.1940887,83.502303 C32.2049107,83.4468061 32.2356858,83.3966974 32.2356858,83.3390453 L32.2356858,82.6687725 C32.2356858,82.0588458 31.61545,81.5653009 30.8504701,81.5653009 L25.368452,81.5653009 C24.6034746,81.5653009 23.9832389,82.0588458 23.9832389,82.6687725 L23.9832389,83.3390453 C23.9832389,83.3966974 24.0140139,83.4468062 24.0248359,83.502303 C23.3741633,83.8492931 22.943989,84.439284 22.943989,85.1079404 L22.943989,91.7206879 C22.943989,92.7853656 24.0315998,93.6517632 25.3681138,93.6517632 L30.8508083,93.6517632 C32.1873251,93.6517632 33.2749358,92.7853655 33.2749358,91.7206879 L33.2749358,85.1079405 C33.2749358,84.439284 32.8447614,83.8492932 32.1940887,83.502303 Z M31.1971123,91.720688 C31.1971123,91.8726308 31.041546,91.9965559 30.8508083,91.9965559 L25.3681138,91.9965559 C25.1773761,91.9965559 25.0218125,91.8726308 25.0218125,91.720688 L25.0218125,85.1079405 C25.0218125,84.9554588 25.1773761,84.8320726 25.3681138,84.8320726 L30.8508083,84.8320726 C31.041546,84.8320726 31.1971123,84.9554588 31.1971123,85.1079405 L31.1971123,91.720688 Z M75.9748235,83.5028419 C75.9856455,83.4468061 76.0164206,83.3966974 76.0164206,83.3390453 L76.0164206,82.6687725 C76.0164206,82.0588458 75.3961848,81.5653009 74.6312049,81.5653009 L69.1491815,81.5653009 C68.3842015,81.5653009 67.7639658,82.0588458 67.7639658,82.6687725 L67.7639658,83.3390453 C67.7639658,83.3966974 67.7944027,83.4468062 67.8052247,83.5028419 C67.1548903,83.8492931 66.725054,84.439284 66.725054,85.1079404 L66.725054,85.7383417 L66.725054,91.7206879 C66.725054,92.7853656 67.8126649,93.6517632 69.1491815,93.6517632 L74.6312049,93.6517632 C75.9677217,93.6517632 77.0553323,92.7853655 77.0553323,91.7206879 L77.0553323,85.7765968 L77.0553323,85.1079405 C77.0553323,84.439284 76.6254962,83.8492932 75.9748235,83.5028419 Z M74.9775088,87.313806 L74.9775088,91.7206879 C74.9775088,91.8726307 74.8219426,91.9965558 74.6312049,91.9965558 L69.1491815,91.9965558 C68.9584438,91.9965558 68.8028776,91.8726307 68.8028776,91.7206879 L68.8028776,87.2906374 L68.8028776,85.1079405 C68.8028776,84.9554588 68.9584438,84.8320726 69.1491815,84.8320726 L74.6312049,84.8320726 C74.8219426,84.8320726 74.9775088,84.9554588 74.9775088,85.1079405 L74.9775088,87.313806 Z M87.2641962,83.502303 C87.2750182,83.4468061 87.3057933,83.3966974 87.3057933,83.3390453 L87.3057933,82.6687725 C87.3057933,82.0588458 86.6855576,81.5653009 85.9205776,81.5653009 L80.4382212,81.5653009 C79.6732412,81.5653009 79.0530055,82.0588458 79.0530055,82.6687725 L79.0530055,83.3390453 C79.0530055,83.3972362 79.0837806,83.4468062 79.0946026,83.5028419 C78.4442682,83.8492931 78.0144319,84.439284 78.0144319,85.1079404 L78.0144319,91.7206879 C78.0144319,92.7853656 79.1020427,93.6517632 80.4385593,93.6517632 L85.9205775,93.6517632 C87.2570942,93.6517632 88.3447049,92.7853655 88.3447049,91.7206879 L88.3447049,85.1079405 C88.3447051,84.439284 87.9148689,83.8492932 87.2641962,83.502303 Z M86.2668815,91.720688 C86.2668815,91.8726308 86.1113153,91.9965559 85.9205776,91.9965559 L80.4385595,91.9965559 C80.2478218,91.9965559 80.0922555,91.8726308 80.0922555,91.720688 L80.0922555,85.1079405 C80.0922555,84.9554588 80.2478218,84.8320726 80.4385595,84.8320726 L85.9205776,84.8320726 C86.1113153,84.8320726 86.2668815,84.9554588 86.2668815,85.1079405 L86.2668815,91.720688 Z M57.1976379,85.9333889 C56.9379099,85.6321972 57.0339551,85.2200117 57.4120488,85.012572 C58.7695331,84.2700993 59.8409109,83.3250363 60.5111983,82.2802944 C60.7195218,81.9543177 61.2207155,81.8250046 61.629246,81.992034 C62.0377764,82.1579857 62.2001064,82.5567012 61.9911065,82.8826778 C61.1956896,84.1235445 59.9376325,85.2372535 58.3535625,86.1041898 C58.2094947,86.1828553 58.0458119,86.2205717 57.883482,86.2205717 C57.6190194,86.2205718 57.358615,86.120354 57.1976379,85.9333889 Z M53.2063499,87.1672512 C53.0818969,86.8154118 53.3395958,86.4501025 53.7812686,86.3509624 C54.3298086,86.228115 54.868203,86.0767109 55.3802188,85.9015994 C55.8043058,85.7561222 56.2912957,85.9129143 56.4718878,86.2485895 C56.6531563,86.5848035 56.4576839,86.9738204 56.0363024,87.1182199 C55.4566492,87.3164999 54.8499409,87.4867622 54.2317343,87.6257737 C54.1559803,87.6419377 54.0802263,87.6505586 54.0058251,87.6505586 C53.643288,87.6505588 53.3098353,87.459822 53.2063499,87.1672512 Z" id="Shape"></path>
            </g>
        </g>
    </g>
</svg>