<?xml version="1.0" encoding="UTF-8"?>
<svg width="262px" height="46px" viewBox="0 0 262 46" version="1.1" xmlns="http://www.w3.org/2000/svg" xmlns:xlink="http://www.w3.org/1999/xlink">
    <!-- Generator: Sketch 52.2 (67145) - http://www.bohemiancoding.com/sketch -->
    <title>Group 2</title>
    <desc>Created with Sketch.</desc>
    <g id="Page-1" stroke="none" stroke-width="1" fill="none" fill-rule="evenodd">
        <g id="Home-page-Redesign" transform="translate(-96.000000, -59.000000)">
            <g id="head-banner" transform="translate(0.000000, 9.000000)">
                <g id="Group-2" transform="translate(96.000000, 48.000000)">
                    <g id="logo" transform="translate(41.000000, -0.000000)" fill-rule="nonzero">
                        <g id="col:-2,-row:0" transform="translate(61.002145, 11.770966) rotate(-81.181401) translate(-61.002145, -11.770966) translate(50.502145, 2.670966)">
                            <g id="chili" transform="translate(0.345340, 1.090431)">
                                <path d="M14.9838641,7.63120348 L14.9732839,7.64075841 C12.4446087,12.4086681 8.23367677,14.4820559 5.03844704,15.3706643 C2.82721404,15.9917666 0.820990652,16.3070792 0.493003494,16.3070792 L0.429522108,16.3070792 C0.19672176,16.2593046 0.016893102,16.0873477 0.00627760368,15.8675206 C-0.0149181256,15.7242285 0.0485632599,15.5808727 0.165016335,15.4853553 C0.323684531,15.3515863 0.556484879,15.2177854 0.873856539,15.0266869 C2.08000286,14.3100672 4.86916334,12.5615151 6.29745925,9.36064567 L8.58282439,4.22964867 L9.78893545,4.08629288 C10.4132043,4.65006556 11.3654604,4.80291258 12.1694874,4.47807683 C12.3282261,4.41119233 12.5080548,4.42074726 12.6562133,4.49715484 C12.8043365,4.58318105 12.8995233,4.72647314 12.9101388,4.87938386 C12.9419148,5.34757539 13.1640644,5.78710214 13.5344077,6.11193788 L14.9838641,7.63120348 Z" id="Shape" fill="#76003B"></path>
                                <path d="M14.9838641,7.63120348 L14.9732839,7.64075841 C12.4446087,12.4086681 8.23367677,14.4820559 5.03844704,15.3706643 L12.6562133,4.49715484 C12.8043365,4.58318105 12.8995233,4.72647314 12.9101388,4.87938386 C12.9419148,5.34757539 13.1640644,5.78710214 13.5344077,6.11193788 L14.9838641,7.63120348 Z" id="Shape" fill="#9B0A16"></path>
                                <g id="Group" transform="translate(8.569987, 0.000000)" fill="#BBE6B5">
                                    <path d="M9.12241617,0.929185018 C7.84217296,1.32096897 6.47735844,2.32824961 5.75790274,3.36011826 C5.66264539,3.51302898 5.48281673,3.58950026 5.31349777,3.58950026 C5.21831096,3.58950026 5.11254392,3.56080363 5.0278668,3.51302898 C4.96438542,3.47477741 4.91148426,3.42700277 4.87974357,3.36967319 C4.76336103,3.21682617 4.7527808,3.01614081 4.86916334,2.85373886 C5.23950669,2.31866283 5.70503685,1.83136144 6.24459336,1.43005441 C6.91114791,0.91405638 7.93746558,0.27944983 8.78388405,0.0214348912 C9.06958555,-0.0549726928 9.36579675,0.0787644666 9.46101883,0.327192627 C9.54559014,0.575652636 9.39753744,0.843222505 9.12241617,0.929185018 Z" id="Shape"></path>
                                    <path d="M6.91114791,6.62793591 C6.76305994,6.97191336 6.59374098,7.28722603 6.41391232,7.63120348 C6.01186355,7.62164855 5.60981477,7.54517727 5.23950669,7.41147196 C4.59407734,7.17259872 4.06506579,6.74262691 3.71595344,6.20755087 C3.57841044,5.99731058 3.47257286,5.76799228 3.39851124,5.53870583 C3.38800155,5.53870583 3.36680582,5.54826076 3.35622559,5.54826076 C2.84840977,5.6437782 2.32997845,5.62466834 1.83267233,5.49093118 C1.32485652,5.35716217 0.859326356,5.11828894 0.467857811,4.76475656 C0.287958618,4.60235461 0.150450884,4.42077911 0.0129078817,4.22968052 C0.118674924,4.00036222 0.245637695,3.780567 0.383180697,3.58953211 C1.50468517,2.06071159 3.66301702,1.63073977 5.40879039,2.61489748 C5.42998611,2.62445241 5.44056635,2.63403919 5.46169154,2.64353042 C6.8053456,3.42700277 7.62005865,4.94626836 6.91114791,6.62793591 Z" id="Shape"></path>
                                </g>
                                <path d="M15.481135,6.62793591 C15.333047,6.97191336 15.163728,7.28722603 14.9838994,7.63120348 C14.5818506,7.62164855 14.1798018,7.54517727 13.8094937,7.41147196 C13.1640644,7.17259872 12.6350528,6.74262691 12.2859405,6.20755087 C12.1483975,5.99731058 12.0425599,5.76799228 11.9684983,5.53870583 C11.9579886,5.53870583 11.9367929,5.54826076 11.9262126,5.54826076 L13.9787774,2.61489748 C13.9999732,2.62445241 14.0105534,2.63403919 14.0316786,2.64353042 C15.3753326,3.42700277 16.1900457,4.94626836 15.481135,6.62793591 Z" id="Shape" fill="#BBE6B5"></path>
                            </g>
                        </g>
                        <g id="col:-1,-row:0" transform="translate(8.872862, 12.274309) rotate(-272.629467) translate(-8.872862, -12.274309) translate(-1.627138, 3.874309)">
                            <g id="chili" transform="translate(0.790994, 0.336373)">
                                <path d="M15.2306572,7.19479769 L15.2199027,7.2038062 C12.6495787,11.6990533 8.36929027,13.6538703 5.12143322,14.4916618 C2.87377992,15.0772451 0.834512851,15.3745259 0.501123551,15.3745259 L0.43659659,15.3745259 C0.199961883,15.3294834 0.0171713414,15.1673602 0.00638099951,14.9601044 C-0.0151638359,14.8250068 0.0493631254,14.6898491 0.167734251,14.599794 C0.329015806,14.4736748 0.565650512,14.3475256 0.888249471,14.1673554 C2.11426174,13.4917171 4.94936133,11.8431595 6.40118211,8.82533823 L8.72418856,3.98776767 L9.95016498,3.85260997 C10.5847159,4.38414216 11.5526562,4.52824832 12.369926,4.22198896 C12.5312793,4.15892938 12.7140698,4.16793789 12.8646686,4.23997595 C13.0152315,4.32108258 13.1119861,4.45618023 13.1227764,4.60034643 C13.1550758,5.04176349 13.3808843,5.45615501 13.7573274,5.76241436 L15.2306572,7.19479769 Z" id="Shape" fill="#76003B"></path>
                                <path d="M15.2306572,7.19479769 L15.2199027,7.2038062 C12.6495787,11.6990533 8.36929027,13.6538703 5.12143322,14.4916618 L12.8646686,4.23997595 C13.0152315,4.32108258 13.1119861,4.45618023 13.1227764,4.60034643 C13.1550758,5.04176349 13.3808843,5.45615501 13.7573274,5.76241436 L15.2306572,7.19479769 Z" id="Shape" fill="#9B0A16"></path>
                                <g id="Group" transform="translate(8.711140, 0.000000)" fill="#BBE6B5">
                                    <path d="M9.27266773,0.876047695 C7.97133816,1.24542669 6.58404434,2.19510395 5.85273878,3.16796311 C5.75591249,3.31212932 5.57312195,3.38422744 5.40101421,3.38422744 C5.30425961,3.38422744 5.19675052,3.35717188 5.11067873,3.31212932 C5.04615177,3.27606525 4.9923793,3.23102269 4.96011582,3.17697162 C4.84181639,3.03286547 4.8310619,2.8436567 4.94936133,2.69054204 C5.32580445,2.18606541 5.79900216,1.72663133 6.34744549,1.34827386 C7.02497858,0.861784219 8.0682003,0.263468927 8.92855979,0.0202090937 C9.21896696,-0.0518289683 9.52005693,0.0742601614 9.61684737,0.308481455 C9.70281163,0.542732777 9.55232041,0.795001122 9.27266773,0.876047695 Z" id="Shape"></path>
                                    <path d="M7.02497858,6.248904 C6.87445152,6.57321041 6.70234377,6.87049128 6.51955323,7.19479769 C6.11088248,7.18578918 5.70221172,7.11369106 5.32580445,6.98763196 C4.66974449,6.76241917 4.13201982,6.35703616 3.77715738,5.85255953 C3.63734896,5.65434226 3.52976818,5.43813798 3.45448672,5.22196374 C3.44380392,5.22196374 3.42225909,5.23097225 3.4115046,5.23097225 C2.89532475,5.32102734 2.36835457,5.30301032 1.86285752,5.17692119 C1.34667768,5.05080203 0.873479966,4.82558924 0.475563705,4.49227433 C0.292701466,4.33915966 0.152928898,4.16796792 0.0131204821,3.98779769 C0.120629569,3.77159342 0.249683492,3.56436764 0.389491908,3.38425747 C1.52946822,1.94286563 3.72334906,1.53748262 5.49787634,2.46535929 C5.51942118,2.4743678 5.53017567,2.48340634 5.55164881,2.49235479 C6.91743364,3.23102269 7.7455655,4.66340601 7.02497858,6.248904 Z" id="Shape"></path>
                                </g>
                                <path d="M15.7361184,6.248904 C15.5855913,6.57321041 15.4134835,6.87049128 15.230693,7.19479769 C14.8220223,7.18578918 14.4133515,7.11369106 14.0369442,6.98763196 C13.3808843,6.76241917 12.8431596,6.35703616 12.4882972,5.85255953 C12.3484887,5.65434226 12.240908,5.43813798 12.1656265,5.22196374 C12.1549437,5.22196374 12.1333989,5.23097225 12.1226444,5.23097225 L14.2090161,2.46535929 C14.230561,2.4743678 14.2413154,2.48340634 14.2627886,2.49235479 C15.6285734,3.23102269 16.4567053,4.66340601 15.7361184,6.248904 Z" id="Shape" fill="#BBE6B5"></path>
                            </g>
                        </g>
                    </g>
                    <path d="M27.6696,24.7232 C29.7528104,24.7232 31.4075939,25.3111941 32.634,26.4872 C33.8604061,27.6632059 34.5071997,29.2087904 34.5744,31.124 L34.5744,47 L28.98,47 L28.98,33.2912 C28.9127997,32.1487943 28.6608022,31.2668031 28.224,30.6452 C27.7871978,30.0235969 27.064805,29.6792003 26.0568,29.612 C24.3095913,29.612 22.8984054,30.3931922 21.8232,31.9556 C20.7479946,33.5180078 20.1936002,35.3407896 20.16,37.424 L20.16,47 L14.4648,47 L14.4648,33.2912 C14.3975997,32.1823945 14.1372023,31.3088032 13.6836,30.6704 C13.2299977,30.0319968 12.4824052,29.6792003 11.4408,29.612 C10.2983943,29.612 9.29040437,29.9815963 8.4168,30.7208 C7.54319563,31.4600037 6.86280244,32.434394 6.3756,33.644 C5.88839756,34.853606 5.6448,36.1135934 5.6448,37.424 L5.6448,47 L0,47 L0,25.6808 L5.0904,25.6808 L5.544,29.4104 C6.35040403,27.8983924 7.44239311,26.739204 8.82,25.9328 C10.1976069,25.126396 11.7767911,24.7232 13.5576,24.7232 C15.2712086,24.7232 16.7075942,25.1011962 17.8668,25.8572 C19.0260058,26.6132038 19.7903982,27.6967929 20.16,29.108 C21.0336044,27.7303931 22.1423933,26.6552039 23.4864,25.8824 C24.8304067,25.1095961 26.2247928,24.7232 27.6696,24.7232 Z M65.2232,25.6808 L66.0548,47.5544 L59.5784,47 L59.5784,43.9256 C58.8055961,44.8328045 57.7640066,45.6643962 56.4536,46.4204 C55.1431935,47.1764038 53.6144087,47.5544 51.8672,47.5544 C49.8175898,47.5544 47.9864081,47.1260043 46.3736,46.2692 C44.7607919,45.4123957 43.4840047,44.1440084 42.5432,42.464 C41.6023953,40.7839916 41.132,38.7512119 41.132,36.3656 C41.132,34.0471884 41.6191951,32.0060088 42.5936,30.242 C43.5680049,28.4779912 44.8699919,27.1172048 46.4996,26.1596 C48.1292082,25.2019952 49.9183903,24.7232 51.8672,24.7232 C55.3280173,24.7232 57.9151914,25.9999872 59.6288,28.5536 L60.032,25.6808 L65.2232,25.6808 Z M53.4296,42.9176 C54.9752077,42.9176 56.2771947,42.5228039 57.3356,41.7332 C58.3940053,40.9435961 59.1415978,39.8264072 59.5784,38.3816 L59.5784,33.7448 C59.175198,32.4343934 58.3940058,31.376004 57.2348,30.5696 C56.0755942,29.763196 54.7400076,29.36 53.228,29.36 C51.4471911,29.36 49.9352062,29.9899937 48.692,31.25 C47.4487938,32.5100063 46.8272,34.1143903 46.8272,36.0632 C46.8272,37.3400064 47.129597,38.4991948 47.7344,39.5408 C48.339203,40.5824052 49.145595,41.405597 50.1536,42.0104 C51.161605,42.615203 52.2535941,42.9176 53.4296,42.9176 Z M79.24,5 L79.24,47 L73.5952,47 L73.5952,7.688 L79.24,5 Z M109.8888,25.6808 L110.8548,47.5544 L104.244,47 L104.244,43.9256 C103.471196,44.8328045 102.429607,45.6643962 101.1192,46.4204 C99.8087935,47.1764038 98.2800088,47.5544 96.5328,47.5544 C94.4831898,47.5544 92.6520081,47.1260043 91.0392,46.2692 C89.426392,45.4123957 88.1496047,44.1440084 87.2088,42.464 C86.2679953,40.7839916 85.7976,38.7512119 85.7976,36.3656 C85.7976,34.0471884 86.2847952,32.0060088 87.2592,30.242 C88.2336049,28.4779912 89.5355919,27.1172048 91.1652,26.1596 C92.7948082,25.2019952 94.5839903,24.7232 96.5328,24.7232 C99.9936173,24.7232 102.580791,25.9999872 104.2944,28.5536 L104.6976,25.6808 L109.8888,25.6808 Z M98.0952,42.9176 C99.6408078,42.9176 100.942795,42.5228039 102.0012,41.7332 C103.059605,40.9435961 103.807198,39.8264072 104.244,38.3816 L104.244,33.7448 C103.840798,32.4343934 103.059606,31.376004 101.9004,30.5696 C100.741194,29.763196 99.4056076,29.36 97.8936,29.36 C96.1127911,29.36 94.6008062,29.9899937 93.3576,31.25 C92.1143938,32.5100063 91.4928,34.1143903 91.4928,36.0632 C91.4928,37.3400064 91.795197,38.4991948 92.4,39.5408 C93.004803,40.5824052 93.811195,41.405597 94.8192,42.0104 C95.8272051,42.615203 96.9191941,42.9176 98.0952,42.9176 Z M141.3496,47.4536 C139.703192,47.4536 138.149207,47.1596029 136.6876,46.5716 C135.225993,45.9835971 134.024805,45.1520054 133.084,44.0768 L135.4528,40.9016 C137.233609,42.6488087 139.047991,43.5224 140.896,43.5224 C141.904005,43.5224 142.735597,43.3292019 143.3908,42.9428 C144.046003,42.5563981 144.3736,41.9768039 144.3736,41.204 C144.3736,40.397596 144.037603,39.792802 143.3656,39.3896 C142.693597,38.986398 141.946004,38.6588013 141.1228,38.4068 C140.299596,38.1547987 139.770401,37.9952003 139.5352,37.928 C137.687191,37.3567971 136.309605,36.5252055 135.4024,35.4332 C134.495196,34.3411945 134.0416,33.0560074 134.0416,31.5776 C134.0416,30.4015941 134.335597,29.3012051 134.9236,28.2764 C135.511603,27.2515949 136.401994,26.4200032 137.5948,25.7816 C138.787606,25.1431968 140.240791,24.824 141.9544,24.824 C143.567208,24.824 144.969994,25.0087982 146.1628,25.3784 C147.355606,25.7480018 148.472795,26.335996 149.5144,27.1424 L147.3472,30.5192 C146.742397,29.9479971 146.011604,29.4944017 145.1548,29.1584 C144.297996,28.8223983 143.516804,28.6544 142.8112,28.6544 C141.937596,28.6544 141.215203,28.855998 140.644,29.2592 C140.072797,29.662402 139.7872,30.1831968 139.7872,30.8216 C139.7536,31.5944039 140.039197,32.1739981 140.644,32.5604 C141.248803,32.9468019 142.223193,33.3583978 143.5672,33.7952 C144.138403,33.9632008 144.507999,34.0807997 144.676,34.148 C146.356008,34.6856027 147.666395,35.4331952 148.6072,36.3908 C149.548005,37.3484048 150.0184,38.5999923 150.0184,40.1456 C150.0184,42.2288104 149.270808,43.967593 147.7756,45.362 C146.280393,46.756407 144.138414,47.4536 141.3496,47.4536 Z M179.1552,25.6808 L179.1552,47 L173.5104,47 L173.5104,43.9256 C172.737596,44.8328045 171.696007,45.6643962 170.3856,46.4204 C169.075193,47.1764038 167.546409,47.5544 165.7992,47.5544 C163.74959,47.5544 161.918408,47.1260043 160.3056,46.2692 C158.692792,45.4123957 157.416005,44.1440084 156.4752,42.464 C155.534395,40.7839916 155.064,38.7512119 155.064,36.3656 C155.064,34.0471884 155.551195,32.0060088 156.5256,30.242 C157.500005,28.4779912 158.801992,27.1172048 160.4316,26.1596 C162.061208,25.2019952 163.85039,24.7232 165.7992,24.7232 C169.260017,24.7232 171.847191,25.9999872 173.5608,28.5536 L173.964,25.6808 L179.1552,25.6808 Z M167.3616,42.9176 C168.907208,42.9176 170.209195,42.5228039 171.2676,41.7332 C172.326005,40.9435961 173.073598,39.8264072 173.5104,38.3816 L173.5104,33.7448 C173.107198,32.4343934 172.326006,31.376004 171.1668,30.5696 C170.007594,29.763196 168.672008,29.36 167.16,29.36 C165.379191,29.36 163.867206,29.9899937 162.624,31.25 C161.380794,32.5100063 160.7592,34.1143903 160.7592,36.0632 C160.7592,37.3400064 161.061597,38.4991948 161.6664,39.5408 C162.271203,40.5824052 163.077595,41.405597 164.0856,42.0104 C165.093605,42.615203 166.185594,42.9176 167.3616,42.9176 Z M208.04,25.6808 L208.04,47 L202.9496,47 L202.5968,43.1696 C201.857596,44.6144072 200.765607,45.7651957 199.3208,46.622 C197.875993,47.4788043 196.229609,47.9072 194.3816,47.9072 C192.43279,47.9072 190.811607,47.310806 189.518,46.118 C188.224394,44.925194 187.5608,43.3880094 187.5272,41.5064 L187.5272,25.6808 L193.172,25.6808 L193.172,39.4904 C193.272801,41.8424118 194.431989,43.0351998 196.6496,43.0688 C198.296008,43.0688 199.665195,42.3128076 200.7572,40.8008 C201.849206,39.2887924 202.3952,37.3904114 202.3952,35.1056 L202.3952,25.6808 L208.04,25.6808 Z M234.052,45.0344 C233.111195,45.8072039 231.960407,46.4203977 230.5996,46.874 C229.238793,47.3276023 227.869607,47.5544 226.492,47.5544 C224.139988,47.5544 222.065209,47.1008045 220.2676,46.1936 C218.469991,45.2863955 217.084005,43.9844085 216.1096,42.2876 C215.135195,40.5907915 214.648,38.6000114 214.648,36.3152 C214.648,34.0639887 215.168795,32.0900085 216.2104,30.3932 C217.252005,28.6963915 218.637991,27.3944045 220.3684,26.4872 C222.098809,25.5799955 223.95519,25.1264 225.9376,25.1264 C229.297617,25.1264 232.069589,26.0335909 234.2536,27.848 L231.4312,31.5272 C230.792797,31.0231975 230.045204,30.5948018 229.1884,30.242 C228.331596,29.8891982 227.416005,29.7128 226.4416,29.7128 C224.727991,29.7128 223.274806,30.3427937 222.082,31.6028 C220.889194,32.8628063 220.2928,34.4335906 220.2928,36.3152 C220.2928,38.1968094 220.922794,39.7675937 222.1828,41.0276 C223.442806,42.2876063 225.04719,42.9176 226.996,42.9176 C228.676008,42.9176 230.087194,42.4472047 231.2296,41.5064 L234.052,45.0344 Z M250.6896,42.716 C252.268808,42.716 253.864792,42.1616055 255.4776,41.0528 L258.048,45.236 C256.905594,45.9416035 255.679207,46.5043979 254.3688,46.9244 C253.058394,47.3444021 251.798406,47.5544 250.5888,47.5544 C248.135988,47.5544 246.010809,47.0672049 244.2132,46.0928 C242.415591,45.1183951 241.038005,43.7744086 240.0804,42.0608 C239.122795,40.3471914 238.644,38.3816111 238.644,36.164 C238.644,34.0807896 239.181595,32.1656087 240.2568,30.4184 C241.332005,28.6711913 242.793591,27.2852051 244.6416,26.2604 C246.489609,25.2355949 248.505589,24.7232 250.6896,24.7232 C253.579215,24.7232 255.98159,25.5715915 257.8968,27.2684 C259.81201,28.9652085 261.088797,31.3591845 261.7272,34.4504 L245.2968,39.9944 C245.868003,40.8680044 246.623995,41.5399976 247.5648,42.0104 C248.505605,42.4808024 249.547194,42.716 250.6896,42.716 Z M250.236,29.1584 C248.455191,29.1584 247.002006,29.7799938 245.8764,31.0232 C244.750794,32.2664062 244.188,33.8791901 244.188,35.8616 C244.188,36.2312018 244.2048,36.516799 244.2384,36.7184 L255.4272,32.7368 C254.990398,31.6951948 254.352004,30.8384034 253.512,30.1664 C252.671996,29.4943966 251.580007,29.1584 250.236,29.1584 Z" id="mala-sauce" fill="#303030"></path>
                </g>
            </g>
        </g>
    </g>
</svg>