<?xml version="1.0" encoding="UTF-8"?>
<svg width="39px" height="41px" viewBox="0 0 39 41" version="1.1" xmlns="http://www.w3.org/2000/svg" xmlns:xlink="http://www.w3.org/1999/xlink">
    <!-- Generator: Sketch 51.3 (57544) - http://www.bohemiancoding.com/sketch -->
    <title>logo</title>
    <desc>Created with Sketch.</desc>
    <defs></defs>
    <g id="Page-1" stroke="none" stroke-width="1" fill="none" fill-rule="evenodd">
        <g id="home-page" transform="translate(-223.000000, -23.000000)" fill-rule="nonzero">
            <g id="head-banner">
                <g id="logo" transform="translate(222.000000, 22.000000)">
                    <g id="col:-2,-row:0" transform="translate(27.433567, 20.871003) rotate(-81.181401) translate(-27.433567, -20.871003) translate(8.933567, 4.371003)">
                        <g id="chili" transform="translate(0.001608, 0.443316)">
                            <path d="M29.6384125,14.5356257 L29.6174846,14.5538255 C24.6157095,23.6355583 16.2863936,27.5848684 9.96615897,29.2774558 C5.59229151,30.4605077 1.62393755,31.0611033 0.975171746,31.0611033 L0.84960417,31.0611033 C0.389119965,30.9701039 0.0334149271,30.642567 0.0124172381,30.2238488 C-0.0295083803,29.9509115 0.0960591955,29.6778529 0.326405937,29.4959149 C0.640255117,29.2411168 1.10073932,28.986258 1.72850744,28.6222607 C4.11429138,27.2572708 9.6313121,23.9266954 12.4565128,17.8298013 L16.9770153,8.05647366 L19.3627295,7.78341502 C20.5975471,8.85726773 22.4811305,9.14840491 24.0715136,8.52967016 C24.3855023,8.4022711 24.7412073,8.42047097 25.0342681,8.56600922 C25.3272591,8.72986867 25.5155407,9.00280599 25.5365384,9.2940645 C25.5993919,10.1858579 26.0388087,11.0230517 26.771356,11.6417864 L29.6384125,14.5356257 Z" id="Shape" fill="#76003B"></path>
                            <path d="M29.6384125,14.5356257 L29.6174846,14.5538255 C24.6157095,23.6355583 16.2863936,27.5848684 9.96615897,29.2774558 L25.0342681,8.56600922 C25.3272591,8.72986867 25.5155407,9.00280599 25.5365384,9.2940645 C25.5993919,10.1858579 26.0388087,11.0230517 26.771356,11.6417864 L29.6384125,14.5356257 Z" id="Shape" fill="#9B0A16"></path>
                            <g id="Group" transform="translate(16.951623, 0.000000)" fill="#BBE6B5">
                                <path d="M18.0443397,1.76987622 C15.5119905,2.51613136 12.8123574,4.43476115 11.3892582,6.40022526 C11.200837,6.69148377 10.845132,6.83714336 10.5102154,6.83714336 C10.3219338,6.83714336 10.1127242,6.7824831 9.94523104,6.69148377 C9.81966347,6.61862364 9.71502382,6.52762432 9.65224003,6.41842513 C9.42203281,6.12728795 9.40110488,5.74503012 9.6313121,5.43569307 C10.3638594,4.41650062 11.2846883,3.4883075 12.3519429,2.72391316 C13.6704025,1.74105977 15.7004814,0.532285391 17.3747157,0.0408283643 C17.9398396,-0.104709891 18.5257518,0.150027555 18.7141032,0.623224051 C18.8813871,1.09648121 18.5885356,1.6061381 18.0443397,1.76987622 Z" id="Shape"></path>
                                <path d="M13.6704025,12.6246398 C13.3774812,13.279835 13.0425646,13.8804305 12.6868595,14.5356257 C11.8915982,14.5174258 11.0963369,14.3717662 10.3638594,14.1170894 C9.08718594,13.6620928 8.04078948,12.8430989 7.35023757,11.8239064 C7.07817449,11.4234487 6.86882543,10.986652 6.72232993,10.5499159 C6.70154152,10.5499159 6.6596159,10.5681157 6.63868797,10.5681157 C5.63421713,10.7500537 4.60874859,10.713654 3.62506615,10.4589165 C2.62059531,10.2041184 1.69976642,9.74912179 0.925433034,9.07572678 C0.569588476,8.76638974 0.297595155,8.42053163 0.0255320737,8.05653433 C0.234741607,7.61973756 0.485876759,7.20108 0.757939839,6.83720403 C2.97630035,3.92516493 7.24552816,3.10617099 10.6987063,4.98075711 C10.7406319,4.99895697 10.7615598,5.01721751 10.8033459,5.03529604 C13.4611232,6.52762432 15.0726435,9.42146355 13.6704025,12.6246398 Z" id="Shape"></path>
                            </g>
                            <path d="M30.6220252,12.6246398 C30.3291039,13.279835 29.9941873,13.8804305 29.6384823,14.5356257 C28.843221,14.5174258 28.0479596,14.3717662 27.3154821,14.1170894 C26.0388087,13.6620928 24.9924122,12.8430989 24.3018603,11.8239064 C24.0297972,11.4234487 23.8204482,10.986652 23.6739527,10.5499159 C23.6531643,10.5499159 23.6112386,10.5681157 23.5903107,10.5681157 L27.650329,4.98075711 C27.6922546,4.99895697 27.7131825,5.01721751 27.7549686,5.03529604 C30.4127459,6.52762432 32.0242662,9.42146355 30.6220252,12.6246398 Z" id="Shape" fill="#BBE6B5"></path>
                        </g>
                    </g>
                    <g id="col:-1,-row:0" transform="translate(11.485142, 21.734752) rotate(-272.629467) translate(-11.485142, -21.734752) translate(-1.514858, 11.234752)">
                        <g id="chili" transform="translate(0.408937, 0.373242)">
                            <path d="M19.4268586,9.3438931 L19.4131412,9.35559247 C16.1346667,15.1935758 10.6751151,17.732299 6.53244033,18.82034 C3.66553561,19.5808378 1.06442966,19.9669168 0.639188203,19.9669168 L0.556883405,19.9669168 C0.255053423,19.90842 0.0219022211,19.6978704 0.00813902998,19.428707 C-0.0193416274,19.2532555 0.0629631701,19.077726 0.213946749,18.9607714 C0.419663018,18.7969803 0.721493001,18.6331502 1.13297126,18.3991629 C2.69676242,17.5217105 6.31296087,15.3807266 8.16477309,11.4614782 L11.1277915,5.17891905 L12.691537,5.00338957 C13.5009132,5.69369112 14.7355309,5.88084197 15.7779669,5.48310255 C15.9837746,5.40120699 16.2169258,5.41290635 16.409016,5.50646228 C16.6010606,5.61179556 16.724472,5.78724705 16.7382352,5.97447589 C16.7794334,6.54774479 17.0674544,7.08591559 17.5476115,7.48365502 L19.4268586,9.3438931 Z" id="Shape" fill="#76003B"></path>
                            <path d="M19.4268586,9.3438931 L19.4131412,9.35559247 C16.1346667,15.1935758 10.6751151,17.732299 6.53244033,18.82034 L16.409016,5.50646228 C16.6010606,5.61179556 16.724472,5.78724705 16.7382352,5.97447589 C16.7794334,6.54774479 17.0674544,7.08591559 17.5476115,7.48365502 L19.4268586,9.3438931 Z" id="Shape" fill="#9B0A16"></path>
                            <g id="Group" transform="translate(11.111148, 0.000000)" fill="#BBE6B5">
                                <path d="M11.8273823,1.13772428 C10.1675232,1.61743726 8.39801575,2.85078435 7.46522804,4.11423781 C7.34172512,4.30146665 7.10857392,4.39510057 6.88904873,4.39510057 C6.76563726,4.39510057 6.62850832,4.35996347 6.51872287,4.30146665 C6.43641807,4.25463019 6.36783074,4.19613336 6.32667834,4.12593717 C6.17578621,3.93878632 6.16206874,3.69306065 6.31296087,3.49421044 C6.79311792,2.83904598 7.39668643,2.24237835 8.09623149,1.75100501 C8.96043186,1.11920028 10.2910718,0.342167438 11.3884691,0.0262455762 C11.7588864,-0.0673103485 12.1429298,0.0964417681 12.266387,0.400625266 C12.3760352,0.704847762 12.1840822,1.03246899 11.8273823,1.13772428 Z" id="Shape"></path>
                                <path d="M8.96043186,8.11545974 C8.76843306,8.53663689 8.54890787,8.92271595 8.31575667,9.3438931 C7.79449296,9.33219373 7.27322924,9.23855981 6.79311792,9.0748467 C5.95630675,8.78236256 5.27043344,8.25589112 4.81780278,7.60072667 C4.63947571,7.34330163 4.50225533,7.06251686 4.40623306,6.78177109 C4.39260705,6.78177109 4.36512639,6.79347046 4.35140892,6.79347046 C3.69301627,6.91042511 3.02086042,6.88702638 2.37609378,6.72327427 C1.71770113,6.55948315 1.11413261,6.26699902 0.606586358,5.8341225 C0.373343707,5.63527229 0.19506237,5.41294535 0.0167353088,5.17895804 C0.153864247,4.89817328 0.318473842,4.62904888 0.496800903,4.39513957 C1.95085233,2.52320212 4.74916972,1.99673068 7.01259738,3.20176531 C7.04007804,3.21346467 7.0537955,3.22520303 7.08118471,3.2368244 C8.8232572,4.19613336 9.87954783,6.05637145 8.96043186,8.11545974 Z" id="Shape"></path>
                            </g>
                            <path d="M20.0715795,8.11545974 C19.8795807,8.53663689 19.6600555,8.92271595 19.4269043,9.3438931 C18.9056406,9.33219373 18.3843769,9.23855981 17.9042656,9.0748467 C17.0674544,8.78236256 16.3815811,8.25589112 15.9289504,7.60072667 C15.7506234,7.34330163 15.613403,7.06251686 15.5173807,6.78177109 C15.5037547,6.78177109 15.4762741,6.79347046 15.4625566,6.79347046 L18.1237451,3.20176531 C18.1512257,3.21346467 18.1649432,3.22520303 18.1923324,3.2368244 C19.9344049,4.19613336 20.9906955,6.05637145 20.0715795,8.11545974 Z" id="Shape" fill="#BBE6B5"></path>
                        </g>
                    </g>
                </g>
            </g>
        </g>
    </g>
</svg>